<?xml version="1.0" encoding="UTF-8"?>
<svg viewBox="0 0 1043.4266 1043.3059" xmlns="http://www.w3.org/2000/svg" xmlns:xlink="http://www.w3.org/1999/xlink">
 <defs>
  <filter id="g">
   <feGaussianBlur stdDeviation="1.22458"/>
  </filter>
  <linearGradient id="f" x1="263.54" x2="265.32" y1="309.65" y2="264.4" gradientUnits="userSpaceOnUse">
   <stop stop-color="#800000" offset="0"/>
   <stop stop-color="#800000" stop-opacity="0" offset="1"/>
  </linearGradient>
  <linearGradient id="a">
   <stop stop-color="#fff" offset="0"/>
   <stop stop-color="#fff" stop-opacity="0" offset="1"/>
  </linearGradient>
  <linearGradient id="d" x1="84.247" x2="78.035" y1="-258.07" y2="-227.01" gradientUnits="userSpaceOnUse" xlink:href="#a"/>
  <linearGradient id="e" x1="153.46" x2="147.25" y1="-258.07" y2="-227.01" gradientUnits="userSpaceOnUse" xlink:href="#a"/>
  <linearGradient id="c" x1="141.82" x2="91.65" y1="-323.66" y2="-151.64" gradientUnits="userSpaceOnUse" xlink:href="#a"/>
  <radialGradient id="b" cx="249.73" cy="205.3" r="121.57" gradientTransform="matrix(.89808 -.04129 .04593 .99894 16.023 10.528)" gradientUnits="userSpaceOnUse">
   <stop stop-color="#f00" offset="0"/>
   <stop stop-color="#f00" stop-opacity="0" offset="1"/>
  </radialGradient>
 </defs>
 <g transform="matrix(4.0632 0 0 4.0632 90.077 1327.9)">
  <path d="m103.31-321.02c-38.076 0.60597-75.07 20.576-96.844 51.625-21.559 30.014-28.082 70.106-17.537 105.53 10.821 36.902 39.987 67.961 76.384 80.639 34.673 12.453 74.982 8.266 106.06-11.54 31.076-19.318 52.756-53.151 56.714-89.659 3.9418-33.372-6.4453-68.13-28.381-93.557-23.511-27.839-59.856-44.266-96.401-43.037z" filter="url(#g)"/>
  <path transform="translate(-142.91 -389.36)" d="m370.91 190.75a121.57 121.57 0 1 1 -243.13 0 121.57 121.57 0 1 1 243.13 0z" fill="#a00"/>
  <path transform="translate(-142.91 -389.36)" d="m370.91 190.75a121.57 121.57 0 1 1 -243.13 0 121.57 121.57 0 1 1 243.13 0z" fill="url(#b)"/>
  <path transform="translate(-142.91 -389.36)" d="m370.91 190.75a121.57 121.57 0 1 1 -243.13 0 121.57 121.57 0 1 1 243.13 0z" fill="url(#f)"/>
  <g transform="matrix(.7738 0 0 .60878 -108.99 -426.32)">
   <path d="m281.95 373.8c-13.787 0-24.95 13.958-24.95 31.186 0 1.817 0.12873 3.611 0.36734 5.3429 2.0192-14.696 12.247-25.881 24.583-25.881s22.592 11.185 24.611 25.881c0.23859-1.7319 0.36734-3.5259 0.36734-5.3429 0-17.228-11.192-31.186-24.979-31.186z"/>
   <path transform="translate(5.1981 -6.6389)" d="m276.29 406.72a6.4908 11.922 0 1 1 -4e-3 -0.41885" stroke="#fff" stroke-width=".35858"/>
   <path transform="translate(20.078 -6.2745)" d="m276.29 406.72a6.4908 11.922 0 1 1 -12.982 0 6.4908 11.922 0 1 1 12.982 0z" stroke="#fff" stroke-width=".35858"/>
  </g>
  <path transform="matrix(1.2632 0 0 1.2632 -195.74 -429.94)" d="m237.81 150.82a30.17 33.719 0 1 1 -60.34 0 30.17 33.719 0 1 1 60.34 0z"/>
  <path transform="matrix(1.2632 0 0 1.2632 -110.64 -429.94)" d="m237.81 150.82a30.17 33.719 0 1 1 -60.34 0 30.17 33.719 0 1 1 60.34 0z"/>
  <path transform="matrix(1.0612 0 0 1.171 -151.94 -415.32)" d="m237.81 150.82a30.17 33.719 0 1 1 -60.34 0 30.17 33.719 0 1 1 60.34 0z" fill="#fff"/>
  <path transform="matrix(-1.0758 0 0 1.1447 373.86 -411.35)" d="m237.81 150.82a30.17 33.719 0 1 1 -60.34 0 30.17 33.719 0 1 1 60.34 0z" fill="#fff"/>
  <path transform="matrix(.7853 0 0 .70307 -18.031 -344.43)" d="m237.81 150.82a30.17 33.719 0 1 1 -60.34 0 30.17 33.719 0 1 1 60.34 0z" fill="#0ff"/>
  <path transform="matrix(.7853 0 0 .68991 -89.56 -342.89)" d="m237.81 150.82a30.17 33.719 0 1 1 -60.34 0 30.17 33.719 0 1 1 60.34 0z" fill="#0ff"/>
  <path transform="matrix(.6547 0 0 .6547 -61.075 -336.5)" d="m237.81 150.82a30.17 33.719 0 1 1 -60.34 0 30.17 33.719 0 1 1 60.34 0z"/>
  <path transform="matrix(.6547 0 0 .6547 8.3171 -336.5)" d="m237.81 150.82a30.17 33.719 0 1 1 -60.34 0 30.17 33.719 0 1 1 60.34 0z"/>
  <path d="m73.978-257.18c-5.1847 0-9.8824 2.2543-13.406 5.9062 2.5972 8.8033 9.9721 15.188 18.719 15.188 5.1968 0 9.911-2.2704 13.438-5.9375-2.5968-8.8041-10.003-15.156-18.75-15.156z" fill="url(#d)"/>
  <path d="m143.19-257.18c-5.1847 0-9.8824 2.2543-13.406 5.9062 2.5972 8.8033 9.9721 15.188 18.719 15.188 5.1968 0 9.911-2.2704 13.438-5.9375-2.5968-8.8041-10.003-15.156-18.75-15.156z" fill="url(#e)"/>
  <path d="m60.369-142.71c32.482-6.6561 64.964-7.5302 97.447 0 9.5453 2.7924 10.031 13.608 0 10.648-28.956-10.586-57.075-19.418-97.447 0-11.038 3.905-10.598-9.6461 0-10.648z" fill="#1a1a1a" stroke="#fff" stroke-width=".24611"/>
  <path d="m66.229-143.2 3.954 24.795 5.8475-26.547z" fill="#fff"/>
  <path d="m143.26-145.2 2.9558 26.57 6.624-24.717z" fill="#fff"/>
  <path d="m104.27-314.8c-42.382 0.11075-83.325 26.363-101.94 64.375 33.977 31.188 81.03 42.205 125.84 45.659 31.383 2.6521 62.937 2.5901 94.381 1.1536-1.2324-52.527-43.134-100.92-95.014-109.31-7.6636-1.4557-15.444-2.0162-23.267-1.8774z" fill="url(#c)"/>
 </g>
</svg>
